<?xml version="1.0" encoding="utf-8"?>
<!-- Generator: Adobe Illustrator 28.2.0, SVG Export Plug-In . SVG Version: 6.00 Build 0)  -->
<svg version="1.1" id="Layer_1" xmlns="http://www.w3.org/2000/svg" xmlns:xlink="http://www.w3.org/1999/xlink" x="0px" y="0px"
	 viewBox="0 0 200 200" style="enable-background:new 0 0 200 200;" xml:space="preserve">
<style type="text/css">
	.st0{fill:none;}
	.st1{fill:#FFFFFF;}
</style>
<rect class="st0" width="200" height="200"/>
<path class="st1" d="M181.8,150c-2.6,0-4.6,2-4.6,4.6s2,4.6,4.6,4.6s4.6-2,4.6-4.6S184.3,150,181.8,150z M181.8,158.4
	c-2.2,0-3.9-1.7-3.9-3.9s1.7-3.9,3.9-3.9s3.9,1.7,3.9,3.9S183.9,158.4,181.8,158.4z M182.8,155c0.6-0.2,1-0.7,1-1.4
	c0-0.9-0.6-1.4-1.6-1.4H180v4.6h0.8v-1.7h1l1.2,1.7h1L182.8,155L182.8,155z M180.8,154.5V153h1.3c0.6,0,0.9,0.3,0.9,0.7
	c0,0.5-0.3,0.8-0.9,0.8H180.8z M161.9,20H25.5c-6.5,0-11.8,5.3-11.8,11.8v136.4c0,6.5,5.3,11.8,11.8,11.8h136.4
	c6.5,0,11.8-5.3,11.8-11.8V31.8C173.7,25.3,168.4,20,161.9,20z M61.4,156.3H37.3V79.9h24.1V156.3z M49.3,69.3
	c-7.7,0-13.9-5.8-13.9-13.8s6.2-13.8,13.9-13.8s13.9,5.8,13.9,13.8S57,69.3,49.3,69.3z M150.1,156.4H126v-41.7
	c0-12.3-5.2-16.1-12-16.1c-7.1,0-14.1,5.4-14.1,16.4v41.4H75.8V79.9h23.1v10.6h0.3c2.3-4.7,10.5-12.7,22.9-12.7
	c13.4,0,27.9,8,27.9,31.3v47.3H150.1z"/>
</svg>
