<?xml version="1.0" encoding="utf-8"?>
<!-- Generator: Adobe Illustrator 28.2.0, SVG Export Plug-In . SVG Version: 6.00 Build 0)  -->
<svg version="1.1" id="Layer_1" xmlns="http://www.w3.org/2000/svg" xmlns:xlink="http://www.w3.org/1999/xlink" x="0px" y="0px"
	 viewBox="0 0 200 200" style="enable-background:new 0 0 200 200;" xml:space="preserve">
<style type="text/css">
	.st0{fill:none;}
	.st1{fill:#FFFFFF;}
</style>
<rect class="st0" width="250" height="200"/>
<path class="st1" d="M188.2,55.4c-2.1-7.9-8.3-14.3-16.3-16.4c-14.3-3.9-71.9-3.9-71.9-3.9s-57.6,0-71.9,3.9
	c-7.9,2.1-14.2,8.3-16.3,16.4C8,69.8,8,100,8,100s0,30.2,3.8,44.6c2.1,7.9,8.3,14.3,16.3,16.4c14.3,3.9,71.9,3.9,71.9,3.9
	s57.6,0,71.9-3.9c7.9-2.1,14.2-8.4,16.3-16.4C192,130.2,192,100,192,100S192,69.8,188.2,55.4z M81.2,127.4V72.6l48.1,27.4
	L81.2,127.4z"/>
</svg>
