<?xml version="1.0" encoding="utf-8"?>
<!-- Generator: Adobe Illustrator 28.2.0, SVG Export Plug-In . SVG Version: 6.00 Build 0)  -->
<svg version="1.1" id="Logo_00000158727625646119494500000015711314265259652764_"
	 xmlns="http://www.w3.org/2000/svg" xmlns:xlink="http://www.w3.org/1999/xlink" x="0px" y="0px" viewBox="0 0 200 200"
	 style="enable-background:new 0 0 200 200;" xml:space="preserve">
<style type="text/css">
	.st0{fill:#FFFFFF;}
	.st1{fill:none;}
</style>
<g id="Logo">
	<path id="Initiator" class="st0" d="M180,100c0-44.2-35.8-80-80-80s-80,35.8-80,80c0,37.5,25.8,69,60.7,77.6v-53.2H64.2V100h16.5
		V89.5c0-27.2,12.3-39.8,39.1-39.8c5.1,0,13.8,1,17.4,2v22.2c-1.9-0.2-5.2-0.3-9.2-0.3c-13.1,0-18.2,5-18.2,17.9v8.6h26.1l-4.5,24.4
		h-21.6v55C149.3,174.6,180,140.9,180,100z"/>
	<path id="F" class="st1" d="M131.3,124.4l4.5-24.4h-26.1v-8.6c0-12.9,5.1-17.9,18.2-17.9c4.1,0,7.4,0.1,9.2,0.3V51.6
		c-3.6-1-12.3-2-17.4-2c-26.7,0-39.1,12.6-39.1,39.8V100H64.2v24.4h16.5v53.2c6.2,1.5,12.7,2.4,19.3,2.4c3.3,0,6.5-0.2,9.7-0.6v-55
		C109.7,124.4,131.3,124.4,131.3,124.4z"/>
</g>
<rect class="st1" width="200" height="200"/>
</svg>
